<?xml version="1.0" encoding="UTF-8"?><svg id="uuid-c0ce5ec8-4593-448a-b755-ff500d260ad8" xmlns="http://www.w3.org/2000/svg" viewBox="0 0 296.59 154.09"><defs><style>.uuid-6e824ea8-6cb4-45c1-9170-f39d3e1a3cb3{fill:#5c946e;opacity:.5;}</style></defs><g id="uuid-3a3aeccb-0c86-4f71-ac71-1ecab597cc14"><g><circle class="uuid-6e824ea8-6cb4-45c1-9170-f39d3e1a3cb3" cx="77.04" cy="77.04" r="77.04"/><g><path d="M79.6,92.59c-1.44-4.61-3.46-9.87-10.08-9.87-4.18,0-6.91,2.95-6.91,6.98s2.66,6.34,9,9.5c7.7,3.82,12.6,7.56,12.6,14.69,0,8.5-7.06,14.69-17.35,14.69-4.61,0-8.71-1.22-12.1-2.23-.43-1.66-1.66-9.14-2.16-12.53l2.81-.65c1.44,4.54,5.47,12.38,12.53,12.38,4.39,0,7.06-2.74,7.06-7.34,0-4.18-2.59-6.62-8.64-9.86-7.49-4.03-12.38-7.63-12.38-15.12s5.9-13.54,16.71-13.54c4.97,0,8.71,1.08,10.3,1.3,.29,2.66,.79,6.41,1.37,10.94l-2.74,.65Z"/><path d="M123.74,120.46c-4.39,6.48-10.15,7.92-13.18,7.92-9.65,0-15.12-7.13-15.12-15.7,0-5.04,2.38-10.01,5.4-12.96,3.24-3.24,7.27-5.04,11.23-5.04,7.06,0,11.95,5.83,11.88,11.74,0,1.22-.07,2.45-.94,2.66-1.37,.36-11.52,.86-18.51,1.15,.29,7.63,4.54,11.52,9.72,11.52,2.81,0,5.62-1.01,8.21-3.24l1.3,1.94Zm-13.1-22.83c-2.88,0-5.33,3.38-5.76,9.07,2.95-.07,5.69-.14,8.71-.22,1.01-.07,1.44-.22,1.44-1.44,.07-3.6-1.58-7.42-4.39-7.42Z"/><path d="M153.88,127.52v-2.45c3.02-.43,3.24-.72,3.24-5.69v-12.31c0-5.11-2.52-6.7-5.04-6.7-1.87,0-3.46,.72-5.4,2.16v17.43c0,4.39,.29,4.68,3.24,5.11v2.45h-16.71v-2.45c3.74-.65,4.18-.72,4.18-5.4v-14.98c0-4.32-.58-4.54-3.75-5.18v-2.3c4.18-.5,9.15-1.44,13.18-2.74-.07,1.01-.14,3.53-.14,5.18,1.44-1.01,2.95-2.09,4.61-3.1,2.16-1.3,3.53-1.87,5.62-1.87,5.83,0,9.5,4.25,9.5,11.59v13.61c0,4.46,.43,4.68,3.89,5.18v2.45h-16.42Z"/><path d="M200.23,104.91c-1.87-5.04-4.32-7.34-7.7-7.34-2.02,0-3.82,1.44-3.82,3.82,0,2.52,1.8,3.89,5.54,5.54,5.83,2.59,9.79,5.04,9.79,10.73,0,7.2-6.84,10.73-13.1,10.73-3.75,0-7.63-1.44-9.15-2.16-.29-1.66-.94-6.62-1.15-9.14l2.38-.43c1.51,4.54,4.46,8.79,9.14,8.79,2.74,0,4.1-1.66,4.1-3.74,0-2.23-1.08-3.89-5.54-6.05-4.75-2.3-9.36-4.82-9.36-10.8s4.68-10.15,12.31-10.15c3.46,0,6.12,.72,7.78,1.08,.22,1.94,.86,6.55,1.15,8.5l-2.38,.65Z"/><path d="M238.6,128.38c-1.94,0-3.53-.65-4.46-1.51-1.01-.86-1.51-1.87-1.87-2.66-2.74,1.8-6.26,4.18-7.63,4.18-6.19,0-9.79-4.82-9.79-9.29,0-3.82,1.73-5.54,5.54-7.06,4.25-1.58,9.94-3.31,11.59-4.75v-3.17c0-3.74-1.37-5.83-4.46-5.83-1.22,0-2.23,.58-2.88,1.44-.86,1.15-1.15,2.59-1.73,4.75-.5,1.94-1.66,2.45-3.1,2.45-1.87,0-4.25-1.73-4.25-3.74,0-1.3,.86-2.23,2.52-3.38,3.24-2.16,7.49-4.25,11.52-5.11,2.88,0,5.33,.65,7.42,2.09,3.1,2.16,3.96,5.18,3.96,8.86v12.46c0,3.46,1.15,4.32,2.3,4.32,.72,0,1.44-.22,2.23-.58l.79,2.45-7.71,4.1Zm-6.62-18.15c-1.3,.72-2.59,1.44-4.03,2.23-2.23,1.15-3.53,2.45-3.53,4.9,0,4.03,2.81,5.47,4.39,5.47,1.01,0,2.02-.07,3.17-1.15v-11.45Z"/><path d="M256,127.52v-2.45c3.89-.5,4.32-.79,4.32-5.9v-14.04c0-4.83-.36-5.11-3.75-5.54v-2.38c4.54-.5,9.07-1.44,13.03-2.59v24.55c0,4.9,.29,5.4,4.46,5.9v2.45h-18.07Zm8.42-37.3c-2.74,0-5.18-2.3-5.18-5.11,0-2.95,2.45-5.11,5.26-5.11s5.18,2.16,5.18,5.11-2.3,5.11-5.26,5.11Z"/><path d="M290.69,128.38c-3.38,0-5.83-2.52-5.83-6.05s2.45-5.98,5.83-5.98,5.9,2.52,5.9,5.98-2.45,6.05-5.9,6.05Z"/></g></g></g></svg>